<?xml version="1.0" encoding="UTF-8"?>
<!DOCTYPE svg PUBLIC "-//W3C//DTD SVG 1.1//EN" "http://www.w3.org/Graphics/SVG/1.1/DTD/svg11.dtd">
<!-- Creator: CorelDRAW X7 -->
<svg xmlns="http://www.w3.org/2000/svg" xml:space="preserve" width="1360px" height="768px" version="1.1" style="shape-rendering:geometricPrecision; text-rendering:geometricPrecision; image-rendering:optimizeQuality; fill-rule:evenodd; clip-rule:evenodd"
viewBox="0 0 1360 768"
 xmlns:xlink="http://www.w3.org/1999/xlink">
 <defs>
  <style type="text/css">
   <![CDATA[
    .str1 {stroke:#00AFEF;stroke-width:2.08347}
    .str0 {stroke:#248BCA;stroke-width:2.08347}
    .str2 {stroke:#278DCB;stroke-width:2.08347}
    .str3 {stroke:#51A3D5;stroke-width:2.08347}
    .fil3 {fill:none}
    .fil1 {fill:#248BCA}
    .fil0 {fill:#248BCA}
    .fil2 {fill:#278DCB}
   ]]>
  </style>
   <clipPath id="id0">
    <path d="M-1 0l1360 0 0 464 -149 0 0 108 -93 0 0 64 -65 0 0 130 -11 0 0 -260 -132 0 0 -84 -172 0 0 154 -80 0 0 190 -10 0 0 -286 -188 0 0 48 -114 0 0 238 -10 0 0 -144 -76 0 0 -164 -186 0 0 50 -74 0 0 -508z"/>
   </clipPath>
    <mask id="id1">
  <linearGradient id="id2" gradientUnits="userSpaceOnUse" x1="-1.00039" y1="383.001" x2="1359" y2="383.001">
   <stop offset="0" style="stop-opacity:0.85098; stop-color:white"/>
   <stop offset="1" style="stop-opacity:0.301961; stop-color:white"/>
  </linearGradient>
     <rect style="fill:url(#id2)" x="-1" width="1360" height="766"/>
    </mask>
   <clipPath id="id3">
    <path d="M-1 0l1360 0 0 464 -149 0 0 108 -93 0 0 64 -65 0 0 130 -11 0 0 -260 -132 0 0 -84 -172 0 0 154 -80 0 0 190 -10 0 0 -286 -188 0 0 48 -114 0 0 238 -10 0 0 -144 -76 0 0 -164 -186 0 0 50 -74 0 0 -508z"/>
   </clipPath>
      <mask id="id4">
  <linearGradient id="id5" gradientUnits="userSpaceOnUse" x1="116" y1="546.501" x2="260.451" y2="546.501">
   <stop offset="0" style="stop-opacity:0.2; stop-color:white"/>
   <stop offset="0.94902" style="stop-opacity:-127.525; stop-color:white"/>
   <stop offset="1" style="stop-opacity:0.85098; stop-color:white"/>
  </linearGradient>
       <rect style="fill:url(#id5)" x="115" y="416" width="147" height="260"/>
      </mask>
      <mask id="id6">
  <linearGradient id="id7" gradientUnits="userSpaceOnUse" x1="215.999" y1="521.501" x2="402.451" y2="521.501">
   <stop offset="0" style="stop-opacity:0.2; stop-color:white"/>
   <stop offset="0.94902" style="stop-opacity:-127.525; stop-color:white"/>
   <stop offset="1" style="stop-opacity:0.85098; stop-color:white"/>
  </linearGradient>
       <rect style="fill:url(#id7)" x="215" y="366" width="189" height="310"/>
      </mask>
      <mask id="id8">
  <linearGradient id="id9" gradientUnits="userSpaceOnUse" x1="359.999" y1="603.501" x2="478.452" y2="603.501">
   <stop offset="0" style="stop-opacity:0.2; stop-color:white"/>
   <stop offset="0.94902" style="stop-opacity:-127.525; stop-color:white"/>
   <stop offset="1" style="stop-opacity:0.85098; stop-color:white"/>
  </linearGradient>
       <rect style="fill:url(#id9)" x="359" y="530" width="121" height="146"/>
      </mask>
      <mask id="id10">
  <linearGradient id="id11" gradientUnits="userSpaceOnUse" x1="488" y1="556.5" x2="634.452" y2="556.5">
   <stop offset="0" style="stop-opacity:0.2; stop-color:white"/>
   <stop offset="0.94902" style="stop-opacity:-127.525; stop-color:white"/>
   <stop offset="1" style="stop-opacity:0.85098; stop-color:white"/>
  </linearGradient>
       <rect style="fill:url(#id11)" x="487" y="436" width="149" height="240"/>
      </mask>
      <mask id="id12">
  <linearGradient id="id13" gradientUnits="userSpaceOnUse" x1="602" y1="532.5" x2="790.452" y2="532.5">
   <stop offset="0" style="stop-opacity:0.2; stop-color:white"/>
   <stop offset="0.94902" style="stop-opacity:-127.525; stop-color:white"/>
   <stop offset="1" style="stop-opacity:0.85098; stop-color:white"/>
  </linearGradient>
       <rect style="fill:url(#id13)" x="601" y="388" width="191" height="288"/>
      </mask>
      <mask id="id14">
  <linearGradient id="id15" gradientUnits="userSpaceOnUse" x1="800.5" y1="580.577" x2="904.501" y2="580.577">
   <stop offset="0" style="stop-opacity:0.2; stop-color:white"/>
   <stop offset="0.94902" style="stop-opacity:-127.525; stop-color:white"/>
   <stop offset="1" style="stop-opacity:0.85098; stop-color:white"/>
  </linearGradient>
       <rect style="fill:url(#id15)" x="799" y="485" width="106" height="192"/>
      </mask>
      <mask id="id16">
  <linearGradient id="id17" gradientUnits="userSpaceOnUse" x1="880" y1="503.501" x2="1052.45" y2="503.501">
   <stop offset="0" style="stop-opacity:0.2; stop-color:white"/>
   <stop offset="0.94902" style="stop-opacity:-127.525; stop-color:white"/>
   <stop offset="1" style="stop-opacity:0.85098; stop-color:white"/>
  </linearGradient>
       <rect style="fill:url(#id17)" x="879" y="330" width="175" height="346"/>
      </mask>
      <mask id="id18">
  <linearGradient id="id19" gradientUnits="userSpaceOnUse" x1="1052.45" y1="545.576" x2="1184.45" y2="545.576">
   <stop offset="0" style="stop-opacity:0.2; stop-color:white"/>
   <stop offset="0.94902" style="stop-opacity:-127.525; stop-color:white"/>
   <stop offset="1" style="stop-opacity:0.85098; stop-color:white"/>
  </linearGradient>
       <rect style="fill:url(#id19)" x="1051" y="415" width="134" height="262"/>
      </mask>
      <mask id="id20">
  <linearGradient id="id21" gradientUnits="userSpaceOnUse" x1="1194.5" y1="610.539" x2="1288.5" y2="610.539">
   <stop offset="0" style="stop-opacity:0.2; stop-color:white"/>
   <stop offset="0.94902" style="stop-opacity:-127.525; stop-color:white"/>
   <stop offset="1" style="stop-opacity:0.85098; stop-color:white"/>
  </linearGradient>
       <rect style="fill:url(#id21)" x="1193" y="545" width="96.0839" height="132.007"/>
      </mask>
      <mask id="id22">
  <linearGradient id="id23" gradientUnits="userSpaceOnUse" x1="1260" y1="578.501" x2="1384.45" y2="578.501">
   <stop offset="0" style="stop-opacity:0.2; stop-color:white"/>
   <stop offset="0.94902" style="stop-opacity:-127.525; stop-color:white"/>
   <stop offset="1" style="stop-opacity:0.85098; stop-color:white"/>
  </linearGradient>
       <rect style="fill:url(#id23)" x="1259" y="480" width="127" height="196"/>
      </mask>
      <mask id="id24">
  <linearGradient id="id25" gradientUnits="userSpaceOnUse" x1="1352.5" y1="524.75" x2="1582.5" y2="524.75">
   <stop offset="0" style="stop-opacity:0.2; stop-color:white"/>
   <stop offset="0.94902" style="stop-opacity:-127.525; stop-color:white"/>
   <stop offset="1" style="stop-opacity:0.85098; stop-color:white"/>
  </linearGradient>
       <rect style="fill:url(#id25)" x="1351" y="373" width="232" height="304"/>
      </mask>
     <mask id="id26">
  <linearGradient id="id27" gradientUnits="userSpaceOnUse" x1="981.5" y1="392.626" x2="1165.45" y2="392.626">
   <stop offset="0" style="stop-opacity:0; stop-color:white"/>
   <stop offset="1" style="stop-opacity:1; stop-color:white"/>
  </linearGradient>
      <rect style="fill:url(#id27)" x="980" y="149" width="186" height="487"/>
     </mask>
      <mask id="id28">
  <linearGradient id="id29" gradientUnits="userSpaceOnUse" x1="17.5465" y1="480.625" x2="166.047" y2="480.625">
   <stop offset="0" style="stop-opacity:0; stop-color:white"/>
   <stop offset="1" style="stop-opacity:1; stop-color:white"/>
  </linearGradient>
       <rect style="fill:url(#id29)" x="17" y="275" width="151" height="411"/>
      </mask>
      <mask id="id30">
  <linearGradient id="id31" gradientUnits="userSpaceOnUse" x1="203.547" y1="457.625" x2="385.499" y2="457.625">
   <stop offset="0" style="stop-opacity:0; stop-color:white"/>
   <stop offset="1" style="stop-opacity:1; stop-color:white"/>
  </linearGradient>
       <rect style="fill:url(#id31)" x="203" y="229" width="184" height="457"/>
      </mask>
      <mask id="id32">
  <linearGradient id="id33" gradientUnits="userSpaceOnUse" x1="435.547" y1="501.625" x2="569.5" y2="501.625">
   <stop offset="0" style="stop-opacity:0; stop-color:white"/>
   <stop offset="1" style="stop-opacity:1; stop-color:white"/>
  </linearGradient>
       <rect style="fill:url(#id33)" x="435" y="317" width="136" height="369"/>
      </mask>
      <mask id="id34">
  <linearGradient id="id35" gradientUnits="userSpaceOnUse" x1="599.547" y1="473.625" x2="771.5" y2="473.625">
   <stop offset="0" style="stop-opacity:0; stop-color:white"/>
   <stop offset="1" style="stop-opacity:1; stop-color:white"/>
  </linearGradient>
       <rect style="fill:url(#id35)" x="599" y="261" width="174" height="425"/>
      </mask>
      <mask id="id36">
  <linearGradient id="id37" gradientUnits="userSpaceOnUse" x1="771.5" y1="503.576" x2="883.499" y2="503.576">
   <stop offset="0" style="stop-opacity:0; stop-color:white"/>
   <stop offset="1" style="stop-opacity:1; stop-color:white"/>
  </linearGradient>
       <rect style="fill:url(#id37)" x="770" y="321" width="114" height="365"/>
      </mask>
      <mask id="id38">
  <linearGradient id="id39" gradientUnits="userSpaceOnUse" x1="865.548" y1="476.625" x2="1027.5" y2="476.625">
   <stop offset="0" style="stop-opacity:0; stop-color:white"/>
   <stop offset="1" style="stop-opacity:1; stop-color:white"/>
  </linearGradient>
       <rect style="fill:url(#id39)" x="865" y="267" width="164" height="419"/>
      </mask>
      <mask id="id40">
  <linearGradient id="id41" gradientUnits="userSpaceOnUse" x1="1215.5" y1="510.575" x2="1359.5" y2="510.575">
   <stop offset="0" style="stop-opacity:0; stop-color:white"/>
   <stop offset="1" style="stop-opacity:1; stop-color:white"/>
  </linearGradient>
       <rect style="fill:url(#id41)" x="1214" y="335" width="146" height="351"/>
      </mask>
   <mask id="id42">
  <linearGradient id="id43" gradientUnits="userSpaceOnUse" x1="11.4992" y1="541.001" x2="53.4992" y2="541.001">
   <stop offset="0" style="stop-opacity:0; stop-color:white"/>
   <stop offset="1" style="stop-opacity:1; stop-color:white"/>
  </linearGradient>
    <rect style="fill:url(#id43)" x="10" y="521" width="44.0835" height="40.0843"/>
   </mask>
   <mask id="id44">
  <linearGradient id="id45" gradientUnits="userSpaceOnUse" x1="91.5001" y1="491" x2="133.5" y2="491">
   <stop offset="0" style="stop-opacity:0; stop-color:white"/>
   <stop offset="1" style="stop-opacity:1; stop-color:white"/>
  </linearGradient>
    <rect style="fill:url(#id45)" x="90" y="471" width="44.0835" height="40.0843"/>
   </mask>
   <mask id="id46">
  <linearGradient id="id47" gradientUnits="userSpaceOnUse" x1="151.499" y1="491" x2="193.499" y2="491">
   <stop offset="0" style="stop-opacity:0; stop-color:white"/>
   <stop offset="1" style="stop-opacity:1; stop-color:white"/>
  </linearGradient>
    <rect style="fill:url(#id47)" x="150" y="471" width="44.0835" height="40.0843"/>
   </mask>
   <mask id="id48">
  <linearGradient id="id49" gradientUnits="userSpaceOnUse" x1="211.498" y1="491" x2="253.498" y2="491">
   <stop offset="0" style="stop-opacity:0; stop-color:white"/>
   <stop offset="1" style="stop-opacity:1; stop-color:white"/>
  </linearGradient>
    <rect style="fill:url(#id49)" x="210" y="471" width="44.0835" height="40.0843"/>
   </mask>
   <mask id="id50">
  <linearGradient id="id51" gradientUnits="userSpaceOnUse" x1="211.499" y1="541.001" x2="253.499" y2="541.001">
   <stop offset="0" style="stop-opacity:0; stop-color:white"/>
   <stop offset="1" style="stop-opacity:1; stop-color:white"/>
  </linearGradient>
    <rect style="fill:url(#id51)" x="210" y="521" width="44.0835" height="40.0843"/>
   </mask>
   <mask id="id52">
  <linearGradient id="id53" gradientUnits="userSpaceOnUse" x1="211.5" y1="591.002" x2="253.5" y2="591.002">
   <stop offset="0" style="stop-opacity:0; stop-color:white"/>
   <stop offset="1" style="stop-opacity:1; stop-color:white"/>
  </linearGradient>
    <rect style="fill:url(#id53)" x="210" y="571" width="44.0835" height="40.0843"/>
   </mask>
   <mask id="id54">
  <linearGradient id="id55" gradientUnits="userSpaceOnUse" x1="211.501" y1="641.002" x2="253.501" y2="641.002">
   <stop offset="0" style="stop-opacity:0; stop-color:white"/>
   <stop offset="1" style="stop-opacity:1; stop-color:white"/>
  </linearGradient>
    <rect style="fill:url(#id55)" x="210" y="621" width="44.0835" height="40.0843"/>
   </mask>
   <mask id="id56">
  <linearGradient id="id57" gradientUnits="userSpaceOnUse" x1="281.501" y1="651" x2="323.501" y2="651">
   <stop offset="0" style="stop-opacity:0; stop-color:white"/>
   <stop offset="1" style="stop-opacity:1; stop-color:white"/>
  </linearGradient>
    <rect style="fill:url(#id57)" x="280" y="631" width="44.0835" height="40.0843"/>
   </mask>
   <mask id="id58">
  <linearGradient id="id59" gradientUnits="userSpaceOnUse" x1="361.499" y1="561" x2="403.499" y2="561">
   <stop offset="0" style="stop-opacity:0; stop-color:white"/>
   <stop offset="1" style="stop-opacity:1; stop-color:white"/>
  </linearGradient>
    <rect style="fill:url(#id59)" x="360" y="541" width="44.0835" height="40.0843"/>
   </mask>
   <mask id="id60">
  <linearGradient id="id61" gradientUnits="userSpaceOnUse" x1="421.5" y1="561" x2="463.5" y2="561">
   <stop offset="0" style="stop-opacity:0; stop-color:white"/>
   <stop offset="1" style="stop-opacity:1; stop-color:white"/>
  </linearGradient>
    <rect style="fill:url(#id61)" x="420" y="541" width="44.0835" height="40.0843"/>
   </mask>
   <mask id="id62">
  <linearGradient id="id63" gradientUnits="userSpaceOnUse" x1="481.501" y1="561" x2="523.501" y2="561">
   <stop offset="0" style="stop-opacity:0; stop-color:white"/>
   <stop offset="1" style="stop-opacity:1; stop-color:white"/>
  </linearGradient>
    <rect style="fill:url(#id63)" x="480" y="541" width="44.0835" height="40.0843"/>
   </mask>
   <mask id="id64">
  <linearGradient id="id65" gradientUnits="userSpaceOnUse" x1="541.503" y1="561" x2="583.503" y2="561">
   <stop offset="0" style="stop-opacity:0; stop-color:white"/>
   <stop offset="1" style="stop-opacity:1; stop-color:white"/>
  </linearGradient>
    <rect style="fill:url(#id65)" x="540" y="541" width="44.0835" height="40.0843"/>
   </mask>
   <mask id="id66">
  <linearGradient id="id67" gradientUnits="userSpaceOnUse" x1="601.504" y1="561" x2="643.504" y2="561">
   <stop offset="0" style="stop-opacity:0; stop-color:white"/>
   <stop offset="1" style="stop-opacity:1; stop-color:white"/>
  </linearGradient>
    <rect style="fill:url(#id67)" x="600" y="541" width="44.0835" height="40.0843"/>
   </mask>
   <mask id="id68">
  <linearGradient id="id69" gradientUnits="userSpaceOnUse" x1="681.5" y1="611" x2="723.5" y2="611">
   <stop offset="0" style="stop-opacity:0; stop-color:white"/>
   <stop offset="1" style="stop-opacity:1; stop-color:white"/>
  </linearGradient>
    <rect style="fill:url(#id69)" x="680" y="591" width="44.0835" height="40.0843"/>
   </mask>
   <mask id="id70">
  <linearGradient id="id71" gradientUnits="userSpaceOnUse" x1="761.496" y1="611" x2="803.496" y2="611">
   <stop offset="0" style="stop-opacity:0; stop-color:white"/>
   <stop offset="1" style="stop-opacity:1; stop-color:white"/>
  </linearGradient>
    <rect style="fill:url(#id71)" x="760" y="591" width="44.0835" height="40.0843"/>
   </mask>
   <mask id="id72">
  <linearGradient id="id73" gradientUnits="userSpaceOnUse" x1="841.492" y1="611" x2="883.492" y2="611">
   <stop offset="0" style="stop-opacity:0; stop-color:white"/>
   <stop offset="1" style="stop-opacity:1; stop-color:white"/>
  </linearGradient>
    <rect style="fill:url(#id73)" x="840" y="591" width="44.0835" height="40.0843"/>
   </mask>
   <mask id="id74">
  <linearGradient id="id75" gradientUnits="userSpaceOnUse" x1="921.488" y1="611" x2="963.488" y2="611">
   <stop offset="0" style="stop-opacity:0; stop-color:white"/>
   <stop offset="1" style="stop-opacity:1; stop-color:white"/>
  </linearGradient>
    <rect style="fill:url(#id75)" x="920" y="591" width="44.0835" height="40.0843"/>
   </mask>
   <mask id="id76">
  <linearGradient id="id77" gradientUnits="userSpaceOnUse" x1="1001.48" y1="611" x2="1043.48" y2="611">
   <stop offset="0" style="stop-opacity:0; stop-color:white"/>
   <stop offset="1" style="stop-opacity:1; stop-color:white"/>
  </linearGradient>
    <rect style="fill:url(#id77)" x="1000" y="591" width="44.0835" height="40.0843"/>
   </mask>
   <mask id="id78">
  <linearGradient id="id79" gradientUnits="userSpaceOnUse" x1="1001.5" y1="671" x2="1043.5" y2="671">
   <stop offset="0" style="stop-opacity:0; stop-color:white"/>
   <stop offset="1" style="stop-opacity:1; stop-color:white"/>
  </linearGradient>
    <rect style="fill:url(#id79)" x="1000" y="651" width="44.0835" height="40.0843"/>
   </mask>
   <mask id="id80">
  <linearGradient id="id81" gradientUnits="userSpaceOnUse" x1="931.501" y1="671" x2="973.501" y2="671">
   <stop offset="0" style="stop-opacity:0; stop-color:white"/>
   <stop offset="1" style="stop-opacity:1; stop-color:white"/>
  </linearGradient>
    <rect style="fill:url(#id81)" x="930" y="651" width="44.0835" height="40.0843"/>
   </mask>
   <mask id="id82">
  <linearGradient id="id83" gradientUnits="userSpaceOnUse" x1="841.499" y1="671" x2="883.499" y2="671">
   <stop offset="0" style="stop-opacity:0; stop-color:white"/>
   <stop offset="1" style="stop-opacity:1; stop-color:white"/>
  </linearGradient>
    <rect style="fill:url(#id83)" x="840" y="651" width="44.0835" height="40.0843"/>
   </mask>
   <mask id="id84">
  <linearGradient id="id85" gradientUnits="userSpaceOnUse" x1="761.501" y1="671" x2="803.501" y2="671">
   <stop offset="0" style="stop-opacity:0; stop-color:white"/>
   <stop offset="1" style="stop-opacity:1; stop-color:white"/>
  </linearGradient>
    <rect style="fill:url(#id85)" x="760" y="651" width="44.0835" height="40.0843"/>
   </mask>
   <mask id="id86">
  <linearGradient id="id87" gradientUnits="userSpaceOnUse" x1="681.502" y1="671" x2="723.502" y2="671">
   <stop offset="0" style="stop-opacity:0; stop-color:white"/>
   <stop offset="1" style="stop-opacity:1; stop-color:white"/>
  </linearGradient>
    <rect style="fill:url(#id87)" x="680" y="651" width="44.0835" height="40.0843"/>
   </mask>
   <mask id="id88">
  <linearGradient id="id89" gradientUnits="userSpaceOnUse" x1="1001.5" y1="561" x2="1043.5" y2="561">
   <stop offset="0" style="stop-opacity:0; stop-color:white"/>
   <stop offset="1" style="stop-opacity:1; stop-color:white"/>
  </linearGradient>
    <rect style="fill:url(#id89)" x="1000" y="541" width="44.0835" height="40.0843"/>
   </mask>
   <mask id="id90">
  <linearGradient id="id91" gradientUnits="userSpaceOnUse" x1="921.5" y1="561" x2="963.5" y2="561">
   <stop offset="0" style="stop-opacity:0; stop-color:white"/>
   <stop offset="1" style="stop-opacity:1; stop-color:white"/>
  </linearGradient>
    <rect style="fill:url(#id91)" x="920" y="541" width="44.0835" height="40.0843"/>
   </mask>
   <mask id="id92">
  <linearGradient id="id93" gradientUnits="userSpaceOnUse" x1="841.499" y1="561" x2="883.499" y2="561">
   <stop offset="0" style="stop-opacity:0; stop-color:white"/>
   <stop offset="1" style="stop-opacity:1; stop-color:white"/>
  </linearGradient>
    <rect style="fill:url(#id93)" x="840" y="541" width="44.0835" height="40.0843"/>
   </mask>
   <mask id="id94">
  <linearGradient id="id95" gradientUnits="userSpaceOnUse" x1="761.498" y1="561" x2="803.498" y2="561">
   <stop offset="0" style="stop-opacity:0; stop-color:white"/>
   <stop offset="1" style="stop-opacity:1; stop-color:white"/>
  </linearGradient>
    <rect style="fill:url(#id95)" x="760" y="541" width="44.0835" height="40.0843"/>
   </mask>
   <mask id="id96">
  <linearGradient id="id97" gradientUnits="userSpaceOnUse" x1="761.501" y1="511.001" x2="803.501" y2="511.001">
   <stop offset="0" style="stop-opacity:0; stop-color:white"/>
   <stop offset="1" style="stop-opacity:1; stop-color:white"/>
  </linearGradient>
    <rect style="fill:url(#id97)" x="760" y="491" width="44.0835" height="40.0843"/>
   </mask>
   <mask id="id98">
  <linearGradient id="id99" gradientUnits="userSpaceOnUse" x1="841.5" y1="511.001" x2="883.501" y2="511.001">
   <stop offset="0" style="stop-opacity:0; stop-color:white"/>
   <stop offset="1" style="stop-opacity:1; stop-color:white"/>
  </linearGradient>
    <rect style="fill:url(#id99)" x="840" y="491" width="44.0835" height="40.0843"/>
   </mask>
   <mask id="id100">
  <linearGradient id="id101" gradientUnits="userSpaceOnUse" x1="1071.5" y1="671" x2="1113.5" y2="671">
   <stop offset="0" style="stop-opacity:0; stop-color:white"/>
   <stop offset="1" style="stop-opacity:1; stop-color:white"/>
  </linearGradient>
    <rect style="fill:url(#id101)" x="1070" y="651" width="44.0835" height="40.0843"/>
   </mask>
   <mask id="id102">
  <linearGradient id="id103" gradientUnits="userSpaceOnUse" x1="1131.5" y1="671" x2="1173.5" y2="671">
   <stop offset="0" style="stop-opacity:0; stop-color:white"/>
   <stop offset="1" style="stop-opacity:1; stop-color:white"/>
  </linearGradient>
    <rect style="fill:url(#id103)" x="1130" y="651" width="44.0835" height="40.0843"/>
   </mask>
   <mask id="id104">
  <linearGradient id="id105" gradientUnits="userSpaceOnUse" x1="1191.5" y1="671" x2="1233.5" y2="671">
   <stop offset="0" style="stop-opacity:0; stop-color:white"/>
   <stop offset="1" style="stop-opacity:1; stop-color:white"/>
  </linearGradient>
    <rect style="fill:url(#id105)" x="1190" y="651" width="44.0835" height="40.0843"/>
   </mask>
   <mask id="id106">
  <linearGradient id="id107" gradientUnits="userSpaceOnUse" x1="1251.5" y1="671" x2="1293.5" y2="671">
   <stop offset="0" style="stop-opacity:0; stop-color:white"/>
   <stop offset="1" style="stop-opacity:1; stop-color:white"/>
  </linearGradient>
    <rect style="fill:url(#id107)" x="1250" y="651" width="44.0835" height="40.0843"/>
   </mask>
   <mask id="id108">
  <linearGradient id="id109" gradientUnits="userSpaceOnUse" x1="1311.5" y1="671" x2="1353.5" y2="671">
   <stop offset="0" style="stop-opacity:0; stop-color:white"/>
   <stop offset="1" style="stop-opacity:1; stop-color:white"/>
  </linearGradient>
    <rect style="fill:url(#id109)" x="1310" y="651" width="44.0835" height="40.0843"/>
   </mask>
   <mask id="id110">
  <linearGradient id="id111" gradientUnits="userSpaceOnUse" x1="1311.5" y1="611" x2="1353.5" y2="611">
   <stop offset="0" style="stop-opacity:0; stop-color:white"/>
   <stop offset="1" style="stop-opacity:1; stop-color:white"/>
  </linearGradient>
    <rect style="fill:url(#id111)" x="1310" y="591" width="44.0835" height="40.0843"/>
   </mask>
   <mask id="id112">
  <linearGradient id="id113" gradientUnits="userSpaceOnUse" x1="1311.5" y1="551" x2="1353.5" y2="551">
   <stop offset="0" style="stop-opacity:0; stop-color:white"/>
   <stop offset="1" style="stop-opacity:1; stop-color:white"/>
  </linearGradient>
    <rect style="fill:url(#id113)" x="1310" y="531" width="44.0835" height="40.0843"/>
   </mask>
   <mask id="id114">
  <linearGradient id="id115" gradientUnits="userSpaceOnUse" x1="1251.5" y1="551" x2="1293.5" y2="551">
   <stop offset="0" style="stop-opacity:0; stop-color:white"/>
   <stop offset="1" style="stop-opacity:1; stop-color:white"/>
  </linearGradient>
    <rect style="fill:url(#id115)" x="1250" y="531" width="44.0835" height="40.0843"/>
   </mask>
   <mask id="id116">
  <linearGradient id="id117" gradientUnits="userSpaceOnUse" x1="1191.5" y1="611" x2="1233.5" y2="611">
   <stop offset="0" style="stop-opacity:0; stop-color:white"/>
   <stop offset="1" style="stop-opacity:1; stop-color:white"/>
  </linearGradient>
    <rect style="fill:url(#id117)" x="1190" y="591" width="44.0835" height="40.0843"/>
   </mask>
   <mask id="id118">
  <linearGradient id="id119" gradientUnits="userSpaceOnUse" x1="1131.5" y1="611" x2="1173.5" y2="611">
   <stop offset="0" style="stop-opacity:0; stop-color:white"/>
   <stop offset="1" style="stop-opacity:1; stop-color:white"/>
  </linearGradient>
    <rect style="fill:url(#id119)" x="1130" y="591" width="44.0835" height="40.0843"/>
   </mask>
   <mask id="id120">
  <linearGradient id="id121" gradientUnits="userSpaceOnUse" x1="1251.5" y1="611" x2="1293.5" y2="611">
   <stop offset="0" style="stop-opacity:0; stop-color:white"/>
   <stop offset="1" style="stop-opacity:1; stop-color:white"/>
  </linearGradient>
    <rect style="fill:url(#id121)" x="1250" y="591" width="44.0835" height="40.0843"/>
   </mask>
   <mask id="id122">
  <linearGradient id="id123" gradientUnits="userSpaceOnUse" x1="601.5" y1="611" x2="643.5" y2="611">
   <stop offset="0" style="stop-opacity:0; stop-color:white"/>
   <stop offset="1" style="stop-opacity:1; stop-color:white"/>
  </linearGradient>
    <rect style="fill:url(#id123)" x="600" y="591" width="44.0835" height="40.0843"/>
   </mask>
   <mask id="id124">
  <linearGradient id="id125" gradientUnits="userSpaceOnUse" x1="601.497" y1="661" x2="643.497" y2="661">
   <stop offset="0" style="stop-opacity:0; stop-color:white"/>
   <stop offset="1" style="stop-opacity:1; stop-color:white"/>
  </linearGradient>
    <rect style="fill:url(#id125)" x="600" y="641" width="44.0835" height="40.0843"/>
   </mask>
   <mask id="id126">
  <linearGradient id="id127" gradientUnits="userSpaceOnUse" x1="541.499" y1="661.001" x2="583.499" y2="661.001">
   <stop offset="0" style="stop-opacity:0; stop-color:white"/>
   <stop offset="1" style="stop-opacity:1; stop-color:white"/>
  </linearGradient>
    <rect style="fill:url(#id127)" x="540" y="641" width="44.0835" height="40.0843"/>
   </mask>
   <mask id="id128">
  <linearGradient id="id129" gradientUnits="userSpaceOnUse" x1="481.501" y1="661.002" x2="523.501" y2="661.002">
   <stop offset="0" style="stop-opacity:0; stop-color:white"/>
   <stop offset="1" style="stop-opacity:1; stop-color:white"/>
  </linearGradient>
    <rect style="fill:url(#id129)" x="480" y="641" width="44.0835" height="40.0843"/>
   </mask>
   <mask id="id130">
  <linearGradient id="id131" gradientUnits="userSpaceOnUse" x1="421.504" y1="661.003" x2="463.504" y2="661.003">
   <stop offset="0" style="stop-opacity:0; stop-color:white"/>
   <stop offset="1" style="stop-opacity:1; stop-color:white"/>
  </linearGradient>
    <rect style="fill:url(#id131)" x="420" y="641" width="44.0835" height="40.0843"/>
   </mask>
   <mask id="id132">
  <linearGradient id="id133" gradientUnits="userSpaceOnUse" x1="361.506" y1="661.004" x2="403.506" y2="661.004">
   <stop offset="0" style="stop-opacity:0; stop-color:white"/>
   <stop offset="1" style="stop-opacity:1; stop-color:white"/>
  </linearGradient>
    <rect style="fill:url(#id133)" x="360" y="641" width="44.0835" height="40.0843"/>
   </mask>
   <mask id="id134">
  <linearGradient id="id135" gradientUnits="userSpaceOnUse" x1="361.499" y1="611" x2="403.499" y2="611">
   <stop offset="0" style="stop-opacity:0; stop-color:white"/>
   <stop offset="1" style="stop-opacity:1; stop-color:white"/>
  </linearGradient>
    <rect style="fill:url(#id135)" x="360" y="591" width="44.0835" height="40.0843"/>
   </mask>
   <mask id="id136">
  <linearGradient id="id137" gradientUnits="userSpaceOnUse" x1="421.499" y1="611" x2="463.499" y2="611">
   <stop offset="0" style="stop-opacity:0; stop-color:white"/>
   <stop offset="1" style="stop-opacity:1; stop-color:white"/>
  </linearGradient>
    <rect style="fill:url(#id137)" x="420" y="591" width="44.0835" height="40.0843"/>
   </mask>
   <mask id="id138">
  <linearGradient id="id139" gradientUnits="userSpaceOnUse" x1="481.499" y1="611" x2="523.499" y2="611">
   <stop offset="0" style="stop-opacity:0; stop-color:white"/>
   <stop offset="1" style="stop-opacity:1; stop-color:white"/>
  </linearGradient>
    <rect style="fill:url(#id139)" x="480" y="591" width="44.0835" height="40.0843"/>
   </mask>
   <mask id="id140">
  <linearGradient id="id141" gradientUnits="userSpaceOnUse" x1="541.499" y1="611" x2="583.499" y2="611">
   <stop offset="0" style="stop-opacity:0; stop-color:white"/>
   <stop offset="1" style="stop-opacity:1; stop-color:white"/>
  </linearGradient>
    <rect style="fill:url(#id141)" x="540" y="591" width="44.0835" height="40.0843"/>
   </mask>
   <mask id="id142">
  <linearGradient id="id143" gradientUnits="userSpaceOnUse" x1="281.501" y1="701" x2="323.501" y2="701">
   <stop offset="0" style="stop-opacity:0; stop-color:white"/>
   <stop offset="1" style="stop-opacity:1; stop-color:white"/>
  </linearGradient>
    <rect style="fill:url(#id143)" x="280" y="681" width="44.0835" height="40.0843"/>
   </mask>
   <mask id="id144">
  <linearGradient id="id145" gradientUnits="userSpaceOnUse" x1="211.502" y1="691.003" x2="253.503" y2="691.003">
   <stop offset="0" style="stop-opacity:0; stop-color:white"/>
   <stop offset="1" style="stop-opacity:1; stop-color:white"/>
  </linearGradient>
    <rect style="fill:url(#id145)" x="210" y="671" width="44.0835" height="40.0843"/>
   </mask>
   <mask id="id146">
  <linearGradient id="id147" gradientUnits="userSpaceOnUse" x1="151.499" y1="541.001" x2="193.499" y2="541.001">
   <stop offset="0" style="stop-opacity:0; stop-color:white"/>
   <stop offset="1" style="stop-opacity:1; stop-color:white"/>
  </linearGradient>
    <rect style="fill:url(#id147)" x="150" y="521" width="44.0835" height="40.0843"/>
   </mask>
   <mask id="id148">
  <linearGradient id="id149" gradientUnits="userSpaceOnUse" x1="91.4953" y1="541.001" x2="133.495" y2="541.001">
   <stop offset="0" style="stop-opacity:0; stop-color:white"/>
   <stop offset="1" style="stop-opacity:1; stop-color:white"/>
  </linearGradient>
    <rect style="fill:url(#id149)" x="90" y="521" width="44.0835" height="40.0843"/>
   </mask>
   <mask id="id150">
  <linearGradient id="id151" gradientUnits="userSpaceOnUse" x1="11.4992" y1="591" x2="53.4992" y2="591">
   <stop offset="0" style="stop-opacity:0; stop-color:white"/>
   <stop offset="1" style="stop-opacity:1; stop-color:white"/>
  </linearGradient>
    <rect style="fill:url(#id151)" x="10" y="571" width="44.0835" height="40.0843"/>
   </mask>
   <mask id="id152">
  <linearGradient id="id153" gradientUnits="userSpaceOnUse" x1="91.4989" y1="591" x2="133.499" y2="591">
   <stop offset="0" style="stop-opacity:0; stop-color:white"/>
   <stop offset="1" style="stop-opacity:1; stop-color:white"/>
  </linearGradient>
    <rect style="fill:url(#id153)" x="90" y="571" width="44.0835" height="40.0843"/>
   </mask>
   <mask id="id154">
  <linearGradient id="id155" gradientUnits="userSpaceOnUse" x1="151.499" y1="591" x2="193.499" y2="591">
   <stop offset="0" style="stop-opacity:0; stop-color:white"/>
   <stop offset="1" style="stop-opacity:1; stop-color:white"/>
  </linearGradient>
    <rect style="fill:url(#id155)" x="150" y="571" width="44.0835" height="40.0843"/>
   </mask>
   <mask id="id156">
  <linearGradient id="id157" gradientUnits="userSpaceOnUse" x1="151.499" y1="641" x2="193.499" y2="641">
   <stop offset="0" style="stop-opacity:0; stop-color:white"/>
   <stop offset="1" style="stop-opacity:1; stop-color:white"/>
  </linearGradient>
    <rect style="fill:url(#id157)" x="150" y="621" width="44.0835" height="40.0843"/>
   </mask>
   <mask id="id158">
  <linearGradient id="id159" gradientUnits="userSpaceOnUse" x1="151.5" y1="691" x2="193.5" y2="691">
   <stop offset="0" style="stop-opacity:0; stop-color:white"/>
   <stop offset="1" style="stop-opacity:1; stop-color:white"/>
  </linearGradient>
    <rect style="fill:url(#id159)" x="150" y="671" width="44.0835" height="40.0843"/>
   </mask>
   <mask id="id160">
  <linearGradient id="id161" gradientUnits="userSpaceOnUse" x1="91.4989" y1="641" x2="133.499" y2="641">
   <stop offset="0" style="stop-opacity:0; stop-color:white"/>
   <stop offset="1" style="stop-opacity:1; stop-color:white"/>
  </linearGradient>
    <rect style="fill:url(#id161)" x="90" y="621" width="44.0835" height="40.0843"/>
   </mask>
   <mask id="id162">
  <linearGradient id="id163" gradientUnits="userSpaceOnUse" x1="21.4996" y1="641" x2="63.4996" y2="641">
   <stop offset="0" style="stop-opacity:0; stop-color:white"/>
   <stop offset="1" style="stop-opacity:1; stop-color:white"/>
  </linearGradient>
    <rect style="fill:url(#id163)" x="20" y="621" width="44.0835" height="40.0843"/>
   </mask>
   <mask id="id164">
  <linearGradient id="id165" gradientUnits="userSpaceOnUse" x1="21.4996" y1="691.001" x2="63.4996" y2="691.001">
   <stop offset="0" style="stop-opacity:0; stop-color:white"/>
   <stop offset="1" style="stop-opacity:1; stop-color:white"/>
  </linearGradient>
    <rect style="fill:url(#id165)" x="20" y="671" width="44.0835" height="40.0843"/>
   </mask>
   <mask id="id166">
  <linearGradient id="id167" gradientUnits="userSpaceOnUse" x1="91.5001" y1="691.001" x2="133.5" y2="691.001">
   <stop offset="0" style="stop-opacity:0; stop-color:white"/>
   <stop offset="1" style="stop-opacity:1; stop-color:white"/>
  </linearGradient>
    <rect style="fill:url(#id167)" x="90" y="671" width="44.0835" height="40.0843"/>
   </mask>
 </defs>
 <g id="Layer_x0020_1">
  <metadata id="CorelCorpID_0Corel-Layer"/>
  <g id="_1646609150192">
   <rect class="fil0 str0" x="-27" y="872" width="144" height="258"/>
   <rect class="fil0 str0" x="73" y="822" width="186" height="308"/>
   <rect class="fil0 str0" x="217" y="986" width="118" height="144"/>
   <rect class="fil0 str0" x="345" y="892" width="146" height="238"/>
   <rect class="fil0 str0" x="459" y="844" width="188" height="286"/>
   <rect class="fil0 str0" x="657" y="940" width="104" height="190"/>
   <rect class="fil0 str0" x="737" y="786" width="172" height="344"/>
   <rect class="fil0 str0" x="909" y="870" width="132" height="260"/>
   <rect class="fil0 str0" x="1052" y="1000" width="94.0004" height="129.924"/>
   <rect class="fil0 str0" x="1117" y="936" width="124" height="194"/>
   <rect class="fil0 str0" x="1210" y="828" width="230" height="302"/>
  </g>
  <g style="clip-path:url(#id0)">
   <polygon class="fil1" style="mask:url(#id1)" points="-1,0 1359,0 1359,766 -1,766 "/>
  </g>
  <g style="clip-path:url(#id3)">
   <g id="_1646609135664">
    <g>
     <polygon id="1" class="fil0 str1" style="mask:url(#id4)" points="116,418 260,418 260,676 116,676 "/>
     <polygon class="fil0 str1" style="mask:url(#id6)" points="216,368 402,368 402,676 216,676 "/>
     <polygon class="fil0 str1" style="mask:url(#id8)" points="360,532 478,532 478,676 360,676 "/>
     <polygon class="fil0 str1" style="mask:url(#id10)" points="488,438 634,438 634,676 488,676 "/>
     <polygon class="fil0 str1" style="mask:url(#id12)" points="602,390 790,390 790,676 602,676 "/>
     <polygon class="fil0 str1" style="mask:url(#id14)" points="800,486 905,486 905,676 800,676 "/>
     <polygon class="fil0 str1" style="mask:url(#id16)" points="880,332 1052,332 1052,676 880,676 "/>
     <polygon class="fil0 str1" style="mask:url(#id18)" points="1052,416 1184,416 1184,676 1052,676 "/>
     <polygon class="fil0 str1" style="mask:url(#id20)" points="1195,546 1289,546 1289,676 1195,676 "/>
     <polygon class="fil0 str1" style="mask:url(#id22)" points="1260,482 1384,482 1384,676 1260,676 "/>
     <polygon class="fil0 str1" style="mask:url(#id24)" points="1352,374 1583,374 1583,676 1352,676 "/>
    </g>
    <polygon class="fil2 str2" style="mask:url(#id26)" points="982,150 1165,150 1165,635 982,635 "/>
    <g>
     <polygon class="fil0 str2" style="mask:url(#id28)" points="18,276 166,276 166,685 18,685 "/>
     <polygon class="fil0 str2" style="mask:url(#id30)" points="204,230 385,230 385,685 204,685 "/>
     <polygon class="fil0 str2" style="mask:url(#id32)" points="436,318 569,318 569,685 436,685 "/>
     <polygon class="fil0 str2" style="mask:url(#id34)" points="600,262 772,262 772,685 600,685 "/>
     <polygon class="fil0 str2" style="mask:url(#id36)" points="772,322 883,322 883,685 772,685 "/>
     <polygon class="fil2 str2" style="mask:url(#id38)" points="866,268 1027,268 1027,685 866,685 "/>
     <polygon class="fil0 str2" style="mask:url(#id40)" points="1216,336 1360,336 1360,685 1216,685 "/>
    </g>
   </g>
  </g>
  <polygon class="fil3 str3" points="-1,0 1359,0 1359,464 1210,464 1210,572 1117,572 1117,636 1052,636 1052,766 1041,766 1041,506 909,506 909,422 737,422 737,576 657,576 657,766 647,766 647,480 459,480 459,528 345,528 345,766 335,766 335,622 259,622 259,458 73,458 73,508 -1,508 "/>
  <polygon class="fil3 str3" style="mask:url(#id42)" points="11,522 53,522 53,560 11,560 "/>
  <polygon class="fil3 str3" style="mask:url(#id44)" points="92,472 134,472 134,510 92,510 "/>
  <polygon class="fil3 str3" style="mask:url(#id46)" points="151,472 193,472 193,510 151,510 "/>
  <polygon class="fil3 str3" style="mask:url(#id48)" points="211,472 253,472 253,510 211,510 "/>
  <polygon class="fil3 str3" style="mask:url(#id50)" points="211,522 253,522 253,560 211,560 "/>
  <polygon class="fil3 str3" style="mask:url(#id52)" points="212,572 254,572 254,610 212,610 "/>
  <polygon class="fil3 str3" style="mask:url(#id54)" points="212,622 254,622 254,660 212,660 "/>
  <polygon class="fil3 str3" style="mask:url(#id56)" points="282,632 324,632 324,670 282,670 "/>
  <polygon class="fil3 str3" style="mask:url(#id58)" points="361,542 403,542 403,580 361,580 "/>
  <polygon class="fil3 str3" style="mask:url(#id60)" points="422,542 464,542 464,580 422,580 "/>
  <polygon class="fil3 str3" style="mask:url(#id62)" points="482,542 524,542 524,580 482,580 "/>
  <polygon class="fil3 str3" style="mask:url(#id64)" points="542,542 584,542 584,580 542,580 "/>
  <polygon class="fil3 str3" style="mask:url(#id66)" points="602,542 644,542 644,580 602,580 "/>
  <polygon class="fil3 str3" style="mask:url(#id68)" points="682,592 724,592 724,630 682,630 "/>
  <polygon class="fil3 str3" style="mask:url(#id70)" points="761,592 803,592 803,630 761,630 "/>
  <polygon class="fil3 str3" style="mask:url(#id72)" points="841,592 883,592 883,630 841,630 "/>
  <polygon class="fil3 str3" style="mask:url(#id74)" points="921,592 963,592 963,630 921,630 "/>
  <polygon class="fil3 str3" style="mask:url(#id76)" points="1001,592 1043,592 1043,630 1001,630 "/>
  <polygon class="fil3 str3" style="mask:url(#id78)" points="1002,652 1044,652 1044,690 1002,690 "/>
  <polygon class="fil3 str3" style="mask:url(#id80)" points="932,652 974,652 974,690 932,690 "/>
  <polygon class="fil3 str3" style="mask:url(#id82)" points="841,652 883,652 883,690 841,690 "/>
  <polygon class="fil3 str3" style="mask:url(#id84)" points="762,652 804,652 804,690 762,690 "/>
  <polygon class="fil3 str3" style="mask:url(#id86)" points="682,652 724,652 724,690 682,690 "/>
  <polygon class="fil3 str3" style="mask:url(#id88)" points="1002,542 1044,542 1044,580 1002,580 "/>
  <polygon class="fil3 str3" style="mask:url(#id90)" points="922,542 964,542 964,580 922,580 "/>
  <polygon class="fil3 str3" style="mask:url(#id92)" points="841,542 883,542 883,580 841,580 "/>
  <polygon class="fil3 str3" style="mask:url(#id94)" points="761,542 803,542 803,580 761,580 "/>
  <polygon class="fil3 str3" style="mask:url(#id96)" points="762,492 804,492 804,530 762,530 "/>
  <polygon class="fil3 str3" style="mask:url(#id98)" points="842,492 884,492 884,530 842,530 "/>
  <polygon class="fil3 str3" style="mask:url(#id100)" points="1072,652 1114,652 1114,690 1072,690 "/>
  <polygon class="fil3 str3" style="mask:url(#id102)" points="1132,652 1174,652 1174,690 1132,690 "/>
  <polygon class="fil3 str3" style="mask:url(#id104)" points="1192,652 1234,652 1234,690 1192,690 "/>
  <polygon class="fil3 str3" style="mask:url(#id106)" points="1252,652 1294,652 1294,690 1252,690 "/>
  <polygon class="fil3 str3" style="mask:url(#id108)" points="1312,652 1354,652 1354,690 1312,690 "/>
  <polygon class="fil3 str3" style="mask:url(#id110)" points="1312,592 1354,592 1354,630 1312,630 "/>
  <polygon class="fil3 str3" style="mask:url(#id112)" points="1312,532 1354,532 1354,570 1312,570 "/>
  <polygon class="fil3 str3" style="mask:url(#id114)" points="1252,532 1294,532 1294,570 1252,570 "/>
  <polygon class="fil3 str3" style="mask:url(#id116)" points="1192,592 1234,592 1234,630 1192,630 "/>
  <polygon class="fil3 str3" style="mask:url(#id118)" points="1132,592 1174,592 1174,630 1132,630 "/>
  <polygon class="fil3 str3" style="mask:url(#id120)" points="1252,592 1294,592 1294,630 1252,630 "/>
  <polygon class="fil3 str3" style="mask:url(#id122)" points="602,592 644,592 644,630 602,630 "/>
  <polygon class="fil3 str3" style="mask:url(#id124)" points="601,642 643,642 643,680 601,680 "/>
  <polygon class="fil3 str3" style="mask:url(#id126)" points="541,642 583,642 583,680 541,680 "/>
  <polygon class="fil3 str3" style="mask:url(#id128)" points="482,642 524,642 524,680 482,680 "/>
  <polygon class="fil3 str3" style="mask:url(#id130)" points="422,642 464,642 464,680 422,680 "/>
  <polygon class="fil3 str3" style="mask:url(#id132)" points="362,642 404,642 404,680 362,680 "/>
  <polygon class="fil3 str3" style="mask:url(#id134)" points="361,592 403,592 403,630 361,630 "/>
  <polygon class="fil3 str3" style="mask:url(#id136)" points="421,592 463,592 463,630 421,630 "/>
  <polygon class="fil3 str3" style="mask:url(#id138)" points="481,592 523,592 523,630 481,630 "/>
  <polygon class="fil3 str3" style="mask:url(#id140)" points="541,592 583,592 583,630 541,630 "/>
  <polygon class="fil3 str3" style="mask:url(#id142)" points="282,682 324,682 324,720 282,720 "/>
  <polygon class="fil3 str3" style="mask:url(#id144)" points="212,672 254,672 254,710 212,710 "/>
  <polygon class="fil3 str3" style="mask:url(#id146)" points="151,522 193,522 193,560 151,560 "/>
  <polygon class="fil3 str3" style="mask:url(#id148)" points="91,522 133,522 133,560 91,560 "/>
  <polygon class="fil3 str3" style="mask:url(#id150)" points="11,572 53,572 53,610 11,610 "/>
  <polygon class="fil3 str3" style="mask:url(#id152)" points="91,572 133,572 133,610 91,610 "/>
  <polygon class="fil3 str3" style="mask:url(#id154)" points="151,572 193,572 193,610 151,610 "/>
  <polygon class="fil3 str3" style="mask:url(#id156)" points="151,622 193,622 193,660 151,660 "/>
  <polygon class="fil3 str3" style="mask:url(#id158)" points="152,672 194,672 194,710 152,710 "/>
  <polygon class="fil3 str3" style="mask:url(#id160)" points="91,622 133,622 133,660 91,660 "/>
  <polygon class="fil3 str3" style="mask:url(#id162)" points="21,622 63,622 63,660 21,660 "/>
  <polygon class="fil3 str3" style="mask:url(#id164)" points="21,672 63,672 63,710 21,710 "/>
  <polygon class="fil3 str3" style="mask:url(#id166)" points="92,672 134,672 134,710 92,710 "/>
 </g>
</svg>
